<svg xmlns="http://www.w3.org/2000/svg" width="240" height="46" viewBox="0 0 240 46" role="img" aria-labelledby="title">
  <title id="title">Stepfield</title>
  <g shape-rendering="crispEdges">
    <rect x="24" y="2" width="8" height="8" rx="2" fill="#C6616C"/>
    <rect x="35" y="2" width="8" height="8" rx="2" fill="#E3A553"/>
    <rect x="46" y="2" width="8" height="8" rx="2" fill="#EBCB82"/>
    <rect x="57" y="2" width="8" height="8" rx="2" fill="#A7C18F"/>
    <rect x="24" y="13" width="8" height="8" rx="2" fill="#83C2D1"/>
    <rect x="35" y="13" width="8" height="8" rx="2" fill="#84A6C8"/>
    <rect x="46" y="13" width="8" height="8" rx="2" fill="#B28EAA"/>
    <rect x="57" y="13" width="8" height="8" rx="2" fill="#DDE3ED"/>
    <rect x="24" y="24" width="8" height="8" rx="2" fill="#C6616C"/>
    <rect x="35" y="24" width="8" height="8" rx="2" fill="#E3A553"/>
    <rect x="46" y="24" width="8" height="8" rx="2" fill="#EBCB82"/>
    <rect x="57" y="24" width="8" height="8" rx="2" fill="#A7C18F"/>
    <rect x="24" y="35" width="8" height="8" rx="2" fill="#83C2D1"/>
    <rect x="35" y="35" width="8" height="8" rx="2" fill="#84A6C8"/>
    <rect x="46" y="35" width="8" height="8" rx="2" fill="#B28EAA"/>
    <rect x="57" y="35" width="8" height="8" rx="2" fill="#DDE3ED"/>
  </g>
  <text x="79" y="36" fill="#F0F3F4" font-family="Inter, DM Sans, -apple-system, BlinkMacSystemFont, 'Segoe UI', sans-serif" font-size="38" font-weight="650" letter-spacing="-1.4">Stepfield</text>
</svg>
